<?xml version="1.0" encoding="UTF-8" standalone="no"?>
<svg
   width="29.281"
   height="29.281"
   viewBox="0 0 29.281 29.281"
   version="1.1"
   id="svg1"
   sodipodi:docname="frozen.svg"
   inkscape:version="1.3.2 (091e20e, 2023-11-25, custom)"
   xmlns:inkscape="http://www.inkscape.org/namespaces/inkscape"
   xmlns:sodipodi="http://sodipodi.sourceforge.net/DTD/sodipodi-0.dtd"
   xmlns="http://www.w3.org/2000/svg"
   xmlns:svg="http://www.w3.org/2000/svg">
  <sodipodi:namedview
     id="namedview1"
     pagecolor="#ffffff"
     bordercolor="#666666"
     borderopacity="1.0"
     inkscape:showpageshadow="2"
     inkscape:pageopacity="0.0"
     inkscape:pagecheckerboard="0"
     inkscape:deskcolor="#d1d1d1"
     inkscape:zoom="1.9315532"
     inkscape:cx="202.42776"
     inkscape:cy="-1.0354361"
     inkscape:window-width="1920"
     inkscape:window-height="1002"
     inkscape:window-x="-8"
     inkscape:window-y="-8"
     inkscape:window-maximized="1"
     inkscape:current-layer="svg1" />
  <defs
     id="defs1">
    <clipPath
       id="clip-path">
      <path
         id="Path_1414"
         data-name="Path 1414"
         d="m 660.147,-52.911 h 30.361 v -30.361 h -30.361 z"
         transform="translate(-660.147,83.272)"
         fill="none" />
    </clipPath>
    <clipPath
       id="clip-path-2">
      <path
         id="Path_2342"
         data-name="Path 2342"
         d="m 675.328,-83.272 a 15.181,15.181 0 0 0 -15.181,15.181 v 0 a 15.181,15.181 0 0 0 15.181,15.181 v 0 a 15.181,15.181 0 0 0 15.18,-15.181 v 0 a 15.18,15.18 0 0 0 -15.18,-15.181 z"
         transform="translate(-660.147,83.272)"
         fill="none" />
    </clipPath>
    <clipPath
       id="clip-path-3">
      <rect
         id="Rectangle_257"
         data-name="Rectangle 257"
         width="26.046"
         height="0.223"
         fill="none"
         x="0"
         y="0" />
    </clipPath>
    <clipPath
       id="clip-path-5">
      <path
         id="Path_2338"
         data-name="Path 2338"
         d="m 665.506,-22.164 h 26.046 v 0.223 h -26.046 z"
         transform="translate(-665.506,22.164)"
         fill="none" />
    </clipPath>
    <clipPath
       id="clip-path-7">
      <path
         id="Path_2340"
         data-name="Path 2340"
         d="m 665.506,-21.94 h 26.046 v -0.223 h -26.046 z"
         transform="translate(-665.506,22.163)"
         fill="none" />
    </clipPath>
    <clipPath
       id="clip-path-8">
      <rect
         id="Rectangle_269"
         data-name="Rectangle 269"
         width="67.57"
         height="12.292"
         fill="none"
         x="0"
         y="0" />
    </clipPath>
  </defs>
  <g
     id="Group_1707"
     data-name="Group 1707">
    <path
       id="Path_1402"
       data-name="Path 1402"
       d="M -21.359,-42.719 A 14.641,14.641 0 0 0 -6.719,-57.359 14.641,14.641 0 0 0 -21.359,-72 14.641,14.641 0 0 0 -36,-57.359 a 14.641,14.641 0 0 0 14.641,14.64"
       transform="translate(36,72)"
       fill="#00b8f1" />
  </g>
  <g
     id="Group_1708"
     data-name="Group 1708"
     transform="translate(4.808,3.413)">
    <path
       id="Path_1403"
       data-name="Path 1403"
       d="m -0.16,-24.569 a 0.817,0.817 0 0 0 1.117,0.3 l 2.679,-1.547 -0.547,2.04 a 0.818,0.818 0 0 0 0.578,1 0.819,0.819 0 0 0 1,-0.579 l 0.97,-3.62 3.105,-1.793 v 3.586 L 6.1,-22.53 a 0.817,0.817 0 0 0 0,1.157 0.818,0.818 0 0 0 1.156,0 l 1.494,-1.494 v 3.094 a 0.818,0.818 0 0 0 0.818,0.818 0.818,0.818 0 0 0 0.818,-0.818 v -3.094 l 1.494,1.494 a 0.818,0.818 0 0 0 1.157,0 0.818,0.818 0 0 0 0,-1.157 l -2.65,-2.65 v -3.586 l 3.105,1.793 0.97,3.62 a 0.819,0.819 0 0 0 1,0.579 0.819,0.819 0 0 0 0.579,-1 l -0.547,-2.04 2.679,1.547 a 0.817,0.817 0 0 0 1.117,-0.3 0.817,0.817 0 0 0 -0.3,-1.117 l -2.679,-1.547 2.04,-0.547 a 0.818,0.818 0 0 0 0.578,-1 0.818,0.818 0 0 0 -0.789,-0.606 0.815,0.815 0 0 0 -0.212,0.028 l -3.62,0.97 -3.108,-1.797 3.1,-1.793 3.62,0.97 a 0.819,0.819 0 0 0 1,-0.579 0.818,0.818 0 0 0 -0.578,-1 l -2.04,-0.547 2.679,-1.547 a 0.818,0.818 0 0 0 0.3,-1.118 0.817,0.817 0 0 0 -0.709,-0.409 0.815,0.815 0 0 0 -0.408,0.11 l -2.674,1.547 0.547,-2.04 a 0.819,0.819 0 0 0 -0.579,-1 0.829,0.829 0 0 0 -0.212,-0.028 0.818,0.818 0 0 0 -0.79,0.606 l -0.97,3.62 -3.105,1.791 v -3.586 l 2.65,-2.65 a 0.818,0.818 0 0 0 0,-1.156 0.816,0.816 0 0 0 -0.578,-0.24 0.814,0.814 0 0 0 -0.578,0.24 l -1.494,1.492 v -3.094 a 0.818,0.818 0 0 0 -0.818,-0.818 0.818,0.818 0 0 0 -0.818,0.818 v 3.094 l -1.494,-1.492 a 0.814,0.814 0 0 0 -0.578,-0.24 0.814,0.814 0 0 0 -0.578,0.24 0.817,0.817 0 0 0 0,1.156 l 2.65,2.65 v 3.586 l -3.105,-1.792 -0.97,-3.62 a 0.818,0.818 0 0 0 -0.789,-0.606 0.829,0.829 0 0 0 -0.212,0.028 0.818,0.818 0 0 0 -0.578,1 l 0.547,2.04 -2.681,-1.55 a 0.812,0.812 0 0 0 -0.408,-0.11 0.817,0.817 0 0 0 -0.709,0.41 0.818,0.818 0 0 0 0.3,1.118 l 2.679,1.547 -2.04,0.547 a 0.818,0.818 0 0 0 -0.578,1 0.818,0.818 0 0 0 1,0.579 l 3.62,-0.97 3.105,1.793 -3.104,1.796 -3.622,-0.97 a 0.812,0.812 0 0 0 -0.212,-0.028 0.818,0.818 0 0 0 -0.79,0.606 0.818,0.818 0 0 0 0.578,1 l 2.04,0.547 -2.677,1.549 a 0.818,0.818 0 0 0 -0.3,1.117"
       transform="translate(0.27,41.41)"
       fill="#ffffff" />
  </g>
  <g
     id="g1"
     data-name="Group 1707">
    <path
       id="path1"
       data-name="Path 1402"
       d="M -21.359,-42.719 A 14.641,14.641 0 0 0 -6.719,-57.359 14.641,14.641 0 0 0 -21.359,-72 14.641,14.641 0 0 0 -36,-57.359 a 14.641,14.641 0 0 0 14.641,14.64"
       transform="translate(36,72)"
       fill="#00b8f1" />
  </g>
  <g
     id="g2"
     data-name="Group 1708"
     transform="translate(4.808,3.413)">
    <path
       id="path2"
       data-name="Path 1403"
       d="m -0.16,-24.569 a 0.817,0.817 0 0 0 1.117,0.3 l 2.679,-1.547 -0.547,2.04 a 0.818,0.818 0 0 0 0.578,1 0.819,0.819 0 0 0 1,-0.579 l 0.97,-3.62 3.105,-1.793 v 3.586 L 6.1,-22.53 a 0.817,0.817 0 0 0 0,1.157 0.818,0.818 0 0 0 1.156,0 l 1.494,-1.494 v 3.094 a 0.818,0.818 0 0 0 0.818,0.818 0.818,0.818 0 0 0 0.818,-0.818 v -3.094 l 1.494,1.494 a 0.818,0.818 0 0 0 1.157,0 0.818,0.818 0 0 0 0,-1.157 l -2.65,-2.65 v -3.586 l 3.105,1.793 0.97,3.62 a 0.819,0.819 0 0 0 1,0.579 0.819,0.819 0 0 0 0.579,-1 l -0.547,-2.04 2.679,1.547 a 0.817,0.817 0 0 0 1.117,-0.3 0.817,0.817 0 0 0 -0.3,-1.117 l -2.679,-1.547 2.04,-0.547 a 0.818,0.818 0 0 0 0.578,-1 0.818,0.818 0 0 0 -0.789,-0.606 0.815,0.815 0 0 0 -0.212,0.028 l -3.62,0.97 -3.108,-1.797 3.1,-1.793 3.62,0.97 a 0.819,0.819 0 0 0 1,-0.579 0.818,0.818 0 0 0 -0.578,-1 l -2.04,-0.547 2.679,-1.547 a 0.818,0.818 0 0 0 0.3,-1.118 0.817,0.817 0 0 0 -0.709,-0.409 0.815,0.815 0 0 0 -0.408,0.11 l -2.674,1.547 0.547,-2.04 a 0.819,0.819 0 0 0 -0.579,-1 0.829,0.829 0 0 0 -0.212,-0.028 0.818,0.818 0 0 0 -0.79,0.606 l -0.97,3.62 -3.105,1.791 v -3.586 l 2.65,-2.65 a 0.818,0.818 0 0 0 0,-1.156 0.816,0.816 0 0 0 -0.578,-0.24 0.814,0.814 0 0 0 -0.578,0.24 l -1.494,1.492 v -3.094 a 0.818,0.818 0 0 0 -0.818,-0.818 0.818,0.818 0 0 0 -0.818,0.818 v 3.094 l -1.494,-1.492 a 0.814,0.814 0 0 0 -0.578,-0.24 0.814,0.814 0 0 0 -0.578,0.24 0.817,0.817 0 0 0 0,1.156 l 2.65,2.65 v 3.586 l -3.105,-1.792 -0.97,-3.62 a 0.818,0.818 0 0 0 -0.789,-0.606 0.829,0.829 0 0 0 -0.212,0.028 0.818,0.818 0 0 0 -0.578,1 l 0.547,2.04 -2.681,-1.55 a 0.812,0.812 0 0 0 -0.408,-0.11 0.817,0.817 0 0 0 -0.709,0.41 0.818,0.818 0 0 0 0.3,1.118 l 2.679,1.547 -2.04,0.547 a 0.818,0.818 0 0 0 -0.578,1 0.818,0.818 0 0 0 1,0.579 l 3.62,-0.97 3.105,1.793 -3.104,1.796 -3.622,-0.97 a 0.812,0.812 0 0 0 -0.212,-0.028 0.818,0.818 0 0 0 -0.79,0.606 0.818,0.818 0 0 0 0.578,1 l 2.04,0.547 -2.677,1.549 a 0.818,0.818 0 0 0 -0.3,1.117"
       transform="translate(0.27,41.41)"
       fill="#ffffff" />
  </g>
</svg>
