<?xml version="1.0" encoding="UTF-8" standalone="no"?>
<!-- Created with Inkscape (http://www.inkscape.org/) -->

<svg
   width="8.0184917mm"
   height="8.0184231mm"
   viewBox="0 0 8.0184917 8.0184231"
   version="1.1"
   id="svg1"
   inkscape:version="1.3.2 (091e20e, 2023-11-25, custom)"
   sodipodi:docname="fat-free.svg"
   xmlns:inkscape="http://www.inkscape.org/namespaces/inkscape"
   xmlns:sodipodi="http://sodipodi.sourceforge.net/DTD/sodipodi-0.dtd"
   xmlns="http://www.w3.org/2000/svg"
   xmlns:svg="http://www.w3.org/2000/svg">
  <sodipodi:namedview
     id="namedview1"
     pagecolor="#ffffff"
     bordercolor="#666666"
     borderopacity="1.0"
     inkscape:showpageshadow="2"
     inkscape:pageopacity="0.0"
     inkscape:pagecheckerboard="0"
     inkscape:deskcolor="#d1d1d1"
     inkscape:document-units="mm"
     inkscape:zoom="2.7580808"
     inkscape:cx="119.28585"
     inkscape:cy="96.443875"
     inkscape:window-width="1920"
     inkscape:window-height="1002"
     inkscape:window-x="-8"
     inkscape:window-y="-8"
     inkscape:window-maximized="1"
     inkscape:current-layer="layer1" />
  <defs
     id="defs1" />
  <g
     inkscape:label="Layer 1"
     inkscape:groupmode="layer"
     id="layer1"
     transform="translate(-78.595251,-131.1282)">
    <rect
       id="Rectangle_266"
       data-name="Rectangle 266"
       width="8.0176687"
       height="8.0174036"
       fill="none"
       x="78.59539"
       y="131.12834"
       style="stroke-width:0.264583" />
    <path
       id="Path_2368"
       data-name="Path 2368"
       d="m 82.631346,132.05279 c -0.02355,1.45521 -3.65125,5.70653 0,5.97191 4.118768,-0.24791 -0.11483,-4.4786 0,-5.97191"
       fill="#fbb05d"
       stroke="#a75033"
       stroke-linecap="round"
       stroke-linejoin="round"
       stroke-width="0.777346" />
    <circle
       id="Ellipse_41"
       data-name="Ellipse 41"
       cx="83.40181"
       cy="136.71396"
       fill="#ffffff"
       r="0.46275625"
       style="stroke-width:0.264583" />
    <path
       id="Path_2358"
       data-name="Path 2358"
       d="m 84.733725,132.46105 a 3.4197395,3.4197395 0 0 0 -5.548577,2.75722 v 0 a 3.4028062,3.4028062 0 0 0 0.798777,2.11667 z m -4.142846,5.44062 a 3.4186812,3.4186812 0 0 0 4.722548,-4.84954 z m 2.110053,1.24354 c -2.361936,0.0558 -4.047332,-1.55045 -4.104217,-3.91186 -0.05689,-2.36141 1.549664,-4.0468 3.9116,-4.10369 2.361935,-0.0569 4.046802,1.55073 4.103952,3.91134 0.05715,2.36061 -1.550194,4.0468 -3.911865,4.10421"
       fill="#fc3328"
       fill-rule="evenodd"
       style="stroke-width:0.264583" />
  </g>
</svg>
