<?xml version="1.0" encoding="UTF-8" standalone="no"?>
<!-- Created with Inkscape (http://www.inkscape.org/) -->

<svg
   width="14.816558mm"
   height="14.796029mm"
   viewBox="0 0 14.816558 14.796029"
   version="1.1"
   id="svg1"
   inkscape:version="1.4.2 (f4327f4, 2025-05-13)"
   sodipodi:docname="gluten-free.svg"
   xmlns:inkscape="http://www.inkscape.org/namespaces/inkscape"
   xmlns:sodipodi="http://sodipodi.sourceforge.net/DTD/sodipodi-0.dtd"
   xmlns="http://www.w3.org/2000/svg"
   xmlns:svg="http://www.w3.org/2000/svg">
  <sodipodi:namedview
     id="namedview1"
     pagecolor="#ffffff"
     bordercolor="#666666"
     borderopacity="1.0"
     inkscape:showpageshadow="2"
     inkscape:pageopacity="0.0"
     inkscape:pagecheckerboard="0"
     inkscape:deskcolor="#d1d1d1"
     inkscape:document-units="mm"
     inkscape:zoom="8.2142634"
     inkscape:cx="18.808747"
     inkscape:cy="42.304463"
     inkscape:window-width="1920"
     inkscape:window-height="1002"
     inkscape:window-x="-8"
     inkscape:window-y="-8"
     inkscape:window-maximized="1"
     inkscape:current-layer="layer1" />
  <defs
     id="defs1" />
  <g
     inkscape:label="Layer 1"
     inkscape:groupmode="layer"
     id="layer1"
     transform="translate(-170.06634,-227.95261)">
    <path
       d="m 182.18511,229.45154 c 0.0346,0.0276 0.0346,0.0276 0.0699,0.0557 0.75261,0.60582 1.33117,1.33242 1.77448,2.18959 0.0126,0.0242 0.0252,0.0483 0.0382,0.0732 0.9778,1.90187 1.03499,4.2526 0.39049,6.26644 -0.24792,0.73689 -0.61973,1.43698 -1.11028,2.04013 -0.0179,0.0222 -0.0358,0.0444 -0.0543,0.0673 -1.22502,1.50805 -2.98684,2.3369 -4.89969,2.56233 -1.96107,0.17959 -4.0752,-0.19305 -5.63094,-1.46689 -0.0322,-0.0261 -0.0322,-0.0261 -0.065,-0.0528 -1.5699,-1.28095 -2.37889,-3.07385 -2.59741,-5.06599 -0.17025,-1.98937 0.28646,-4.04734 1.57496,-5.60807 1.2974,-1.50527 3.04465,-2.35463 5.02145,-2.53718 1.9384,-0.12173 3.93912,0.22902 5.48818,1.47624 z"
       fill="#e72933"
       id="path1"
       style="stroke-width:0.264584" />
    <path
       d="m 182.42568,231.53646 c 0.62338,0.58893 1.0207,1.62292 1.20284,2.44577 0.0167,0.0719 0.0167,0.0719 0.0338,0.14518 0.30784,1.45786 0.0166,3.01907 -0.71544,4.30531 -0.0152,0.0267 -0.0304,0.0534 -0.046,0.0809 -0.8587,1.48452 -2.25701,2.48233 -3.89819,2.93821 -0.95344,0.25413 -2.12554,0.27563 -3.07233,-0.012 -0.071,-0.0197 -0.1421,-0.0394 -0.21316,-0.059 -0.69005,-0.19847 -1.3533,-0.4847 -1.91185,-0.94332 0.0366,-0.0502 0.0734,-0.10033 0.11026,-0.15035 0.0205,-0.0279 0.0409,-0.0558 0.062,-0.0846 0.0225,-0.0283 0.0451,-0.0566 0.0683,-0.0858 0.0293,-0.0418 0.0293,-0.0418 0.0591,-0.0844 0.15852,-0.11889 0.31396,-0.0969 0.50694,-0.094 0.0412,-3e-5 0.0824,-4e-5 0.12492,-8e-5 0.0895,2e-5 0.17909,4.1e-4 0.26863,0.001 0.14195,0.001 0.28386,0.001 0.4258,7.8e-4 0.40359,-6.3e-4 0.80715,7.4e-4 1.21073,0.003 0.2469,0.001 0.49378,9.9e-4 0.74069,2.4e-4 0.0939,-4e-5 0.18779,3.6e-4 0.28168,0.001 0.13176,0.001 0.26345,0.001 0.39521,4.9e-4 0.0384,7.4e-4 0.0769,10e-4 0.11643,0.002 0.31855,-0.004 0.56632,-0.11755 0.79364,-0.34299 0.0425,-0.0485 0.0839,-0.0981 0.12454,-0.14816 0.11199,-0.13481 0.23185,-0.26145 0.35192,-0.38905 0.0495,-0.0528 0.0989,-0.10554 0.14832,-0.15834 0.0366,-0.0391 0.0366,-0.0391 0.074,-0.079 0.10432,-0.11171 0.20793,-0.22407 0.31145,-0.33652 0.173,-0.18781 0.34689,-0.37476 0.52123,-0.56132 0.0473,-0.0506 0.0945,-0.10128 0.14174,-0.15192 0.0904,-0.0969 0.18091,-0.19351 0.27158,-0.29006 0.45928,-0.4907 0.71537,-0.79373 0.73329,-1.48334 0.002,-0.0486 0.003,-0.0973 0.005,-0.1474 0.005,-0.15525 0.009,-0.3105 0.0139,-0.46577 0.005,-0.15483 0.009,-0.30966 0.0143,-0.46448 0.003,-0.0962 0.006,-0.19242 0.009,-0.28864 0.0221,-0.72618 0.0221,-0.72618 0.2274,-0.93743 0.35498,-0.42372 0.38607,-0.91822 0.34863,-1.44437 -0.0287,-0.15509 -0.069,-0.29142 -0.12028,-0.44104 0.0926,-0.0926 0.18523,-0.18523 0.28066,-0.28066 z"
       fill="#fefefd"
       id="path2"
       style="stroke-width:0.264584" />
    <path
       d="m 177.45395,229.08067 c 0.0295,-4e-5 0.0591,-8e-5 0.0895,-1.2e-4 0.43695,4e-4 0.84848,0.0221 1.27373,0.13043 0.0481,0.0107 0.0962,0.0214 0.14582,0.0324 0.81475,0.19481 1.64863,0.55714 2.29995,1.09022 0.0547,0.091 0.0547,0.091 0.0802,0.16038 -0.0418,0.0483 -0.0846,0.0958 -0.1278,0.14284 -0.0356,0.0398 -0.0356,0.0398 -0.0719,0.0803 -0.081,0.0575 -0.081,0.0575 -0.17745,0.0518 -0.10949,-0.0363 -0.21208,-0.0792 -0.317,-0.12718 -1.11139,-0.47183 -2.38867,-0.47035 -3.51579,-0.0677 -0.0421,0.0148 -0.0842,0.0297 -0.12764,0.045 -0.72886,0.27974 -1.25893,0.81219 -1.79718,1.35686 -0.0622,0.0629 -0.12454,0.12565 -0.18692,0.18836 -0.17697,0.17794 -0.3537,0.3561 -0.53026,0.53445 -0.10904,0.11013 -0.2183,0.22006 -0.32767,0.32987 -0.041,0.0412 -0.0819,0.0826 -0.12279,0.12399 -0.23722,0.24048 -0.47971,0.46473 -0.74499,0.67403 -0.32563,0.2672 -0.57684,0.66142 -0.62228,1.0833 -0.0407,0.54412 0.0435,0.9725 0.38904,1.40899 0.0617,0.0724 0.0617,0.0724 0.14352,0.14021 0.0944,0.10764 0.10028,0.15889 0.10585,0.30017 0.003,0.0633 0.003,0.0633 0.006,0.12787 0.001,0.0455 0.002,0.091 0.003,0.13795 0.001,0.0473 0.002,0.0946 0.004,0.14331 0.002,0.10033 0.004,0.20066 0.005,0.30101 0.002,0.1519 0.009,0.30329 0.0155,0.45506 0.0185,0.80086 0.0185,0.80086 -0.27925,1.12112 -0.12193,0.11336 -0.24686,0.21306 -0.38285,0.30921 -0.16584,-0.12725 -0.28044,-0.25888 -0.39343,-0.43352 -0.0173,-0.0265 -0.0346,-0.0531 -0.0524,-0.0804 -0.31202,-0.48547 -0.54136,-0.97892 -0.72753,-1.52522 -0.0252,-0.0734 -0.0516,-0.14633 -0.0783,-0.21917 -0.38281,-1.10928 -0.3123,-2.40251 0.009,-3.51532 0.008,-0.0284 0.0161,-0.0568 0.0244,-0.0861 0.20304,-0.70219 0.53746,-1.33597 0.97797,-1.9186 0.0269,-0.0359 0.0539,-0.0717 0.0816,-0.1087 0.56791,-0.72396 1.24475,-1.27005 2.05433,-1.69891 0.0586,-0.0311 0.11678,-0.063 0.17483,-0.0952 0.83558,-0.44611 1.76597,-0.59223 2.70106,-0.59312 z"
       fill="#fefdfd"
       id="path3"
       style="stroke-width:0.264584" />
    <path
       d="m 182.10492,231.85722 c 0.0802,0.0401 0.0802,0.0401 0.14534,0.17792 0.13554,0.43804 0.10179,0.93546 -0.0822,1.35147 -0.10466,0.18984 -0.23039,0.36194 -0.38388,0.51543 -0.0416,0.29111 -0.0493,0.58088 -0.0559,0.87456 -0.003,0.0995 -0.006,0.19902 -0.008,0.29852 -0.004,0.15545 -0.008,0.3109 -0.0118,0.46637 -0.003,0.15103 -0.008,0.30199 -0.0124,0.45299 -8e-4,0.0461 -0.002,0.0922 -0.002,0.13975 -0.0122,0.36305 -0.0881,0.65325 -0.34511,0.92025 -0.0472,0.05 -0.0472,0.05 -0.0954,0.10102 -0.0363,0.0378 -0.0727,0.0756 -0.1101,0.11448 -0.0673,0.0718 -0.13432,0.14395 -0.20135,0.21604 -0.0725,0.0779 -0.14519,0.15562 -0.21792,0.23331 -0.12815,0.13701 -0.25554,0.27469 -0.38262,0.41269 -0.173,0.18781 -0.34688,0.37477 -0.52123,0.56132 -0.18234,0.19524 -0.36464,0.3905 -0.54629,0.58638 -0.0194,0.0209 -0.0389,0.0417 -0.0589,0.0632 -0.0813,0.0879 -0.15735,0.17342 -0.22522,0.27228 -0.187,0.20488 -0.422,0.35102 -0.70228,0.37005 -0.0754,6.8e-4 -0.15075,8e-5 -0.2261,-0.002 -0.0623,4e-5 -0.0623,4e-5 -0.12579,1.2e-4 -0.13583,-1.6e-4 -0.27158,-0.002 -0.4074,-0.004 -0.0947,-4.5e-4 -0.18942,-7.9e-4 -0.28414,-10e-4 -0.24824,-9.1e-4 -0.49646,-0.003 -0.74469,-0.006 -0.25372,-0.002 -0.50744,-0.004 -0.76117,-0.005 -0.49707,-0.003 -0.99412,-0.007 -1.49117,-0.0118 0.0378,-0.0445 0.0757,-0.0889 0.11356,-0.13337 0.0211,-0.0247 0.0422,-0.0495 0.0639,-0.075 0.0885,-0.10129 0.18278,-0.19568 0.27848,-0.29013 0.0292,-0.029 0.0292,-0.029 0.059,-0.0585 0.0818,-0.0812 0.16386,-0.16208 0.2459,-0.24302 0.27514,-0.26943 0.27514,-0.26943 0.53367,-0.55454 0.25746,-0.3014 0.55063,-0.57269 0.83212,-0.85134 0.0797,-0.079 0.15937,-0.15817 0.239,-0.23732 0.024,-0.0237 0.048,-0.0473 0.0727,-0.0717 0.12076,-0.12007 0.23641,-0.24244 0.34777,-0.37133 0.13674,-0.15819 0.28152,-0.30606 0.43031,-0.45287 0.0398,-0.0396 0.0398,-0.0396 0.0804,-0.0799 0.11196,-0.1113 0.22415,-0.22237 0.33633,-0.33345 0.0825,-0.0818 0.16495,-0.16374 0.24736,-0.24568 0.0249,-0.0245 0.0497,-0.049 0.0753,-0.0743 0.15003,-0.14921 0.29115,-0.30368 0.42946,-0.46379 0.13992,-0.15981 0.29166,-0.3084 0.44181,-0.45852 0.0578,-0.0579 0.11533,-0.11616 0.17284,-0.17441 0.0365,-0.0365 0.0729,-0.0731 0.11049,-0.11073 0.0331,-0.0332 0.0661,-0.0665 0.10021,-0.10071 0.0819,-0.0722 0.0819,-0.0722 0.16213,-0.0722 0.0794,0.23816 0.0794,0.23816 0.16038,0.48113 0.0604,-0.0607 0.0604,-0.0607 0.12195,-0.12259 0.14972,-0.15044 0.29957,-0.30075 0.44946,-0.45102 0.0648,-0.065 0.12954,-0.13001 0.19425,-0.19507 0.0932,-0.0936 0.18645,-0.18717 0.27977,-0.28066 0.0288,-0.029 0.0576,-0.058 0.0872,-0.0879 0.13811,-0.13812 0.27676,-0.26611 0.43103,-0.38639 0.0704,-0.086 0.0704,-0.086 0.1278,-0.17792 0.0196,-0.0297 0.0392,-0.0594 0.0594,-0.0901 0.12112,-0.21062 0.13515,-0.33596 0.11105,-0.57903 -0.005,-0.18686 10e-4,-0.30886 0.12044,-0.4531 0.10658,-0.11114 0.22187,-0.20898 0.34315,-0.30368 z"
       fill="#9c5b38"
       id="path4"
       style="stroke-width:0.264584" />
    <path
       d="m 177.61433,233.66147 c 0.0474,0.0162 0.0948,0.0323 0.14362,0.049 0.10012,0.0351 0.199,0.0718 0.29742,0.11136 -0.21578,0.25997 -0.45208,0.49462 -0.69281,0.73133 -0.0306,0.0303 -0.0611,0.0605 -0.0926,0.0917 -0.0272,0.0268 -0.0545,0.0535 -0.0825,0.0811 -0.0788,0.082 -0.15329,0.16554 -0.22759,0.25155 -0.13914,0.16012 -0.28585,0.31042 -0.4368,0.45936 -0.0265,0.0264 -0.0531,0.0527 -0.0804,0.0799 -0.11196,0.1113 -0.22415,0.22237 -0.33633,0.33345 -0.0825,0.0818 -0.16495,0.16374 -0.24736,0.24568 -0.0249,0.0245 -0.0497,0.0491 -0.0753,0.0743 -0.14859,0.14777 -0.28791,0.30085 -0.42488,0.45939 -0.11264,0.12731 -0.23269,0.24674 -0.35336,0.36638 -0.0258,0.0258 -0.0517,0.0515 -0.0783,0.0781 -0.0815,0.0813 -0.16308,0.16235 -0.24469,0.24345 -0.055,0.0548 -0.10996,0.10957 -0.16492,0.16437 -0.12112,0.12073 -0.24232,0.24136 -0.36361,0.36192 -0.0896,0.0892 -0.17895,0.17868 -0.26835,0.26809 0,-0.60864 0,-1.21728 0,-1.84435 -0.0529,-0.0265 -0.10585,-0.0529 -0.16038,-0.0802 -0.31642,-0.28676 -0.48293,-0.59261 -0.5062,-1.01991 0.0125,-0.35506 0.17266,-0.61472 0.40847,-0.87205 0.34833,-0.32318 0.77139,-0.53073 1.22038,-0.67409 0.0455,-0.0158 0.091,-0.0315 0.13782,-0.0478 0.81922,-0.2409 1.83092,-0.20482 2.6287,0.0879 z"
       fill="#f0b15b"
       id="path5"
       style="stroke-width:0.264584" />
    <path
       d="m 178.45602,230.24948 c 0.9016,-0.0391 1.7607,0.11257 2.56634,0.52518 -0.0348,0.0428 -0.07,0.0854 -0.10524,0.12781 -0.0195,0.0237 -0.0391,0.0474 -0.0592,0.0719 -0.0251,0.0267 -0.0502,0.0535 -0.0761,0.081 -0.0342,0.0388 -0.0684,0.0775 -0.10368,0.11746 -0.13689,0.083 -0.13689,0.083 -0.2261,0.0739 -0.10681,-0.0324 -0.20847,-0.0714 -0.31174,-0.11371 -0.0757,-0.028 -0.15159,-0.0557 -0.22756,-0.083 -0.0551,-0.0199 -0.0551,-0.0199 -0.1113,-0.0403 -0.63915,-0.21628 -1.38172,-0.14998 -2.02671,0.006 -0.0435,0.0102 -0.087,0.0205 -0.13188,0.031 -0.26008,0.0703 -0.49643,0.17444 -0.73517,0.29727 -0.0268,0.0135 -0.0536,0.0271 -0.0812,0.041 -0.47602,0.25564 -0.84915,0.65547 -1.22438,1.03649 -0.0463,0.0467 -0.0925,0.0933 -0.13884,0.13994 -0.11181,0.11268 -0.22336,0.22561 -0.33477,0.33868 0.0372,-0.004 0.0372,-0.004 0.0752,-0.008 1.14855,-0.11752 2.26091,-0.0691 3.2927,0.48955 -0.0586,0.0696 -0.11759,0.13873 -0.17729,0.20736 -0.049,0.0568 -0.0966,0.11493 -0.14347,0.17354 -0.0802,0.0601 -0.0802,0.0601 -0.18591,0.05 -0.15253,-0.0338 -0.29983,-0.0789 -0.44808,-0.12765 -0.109,-0.0358 -0.21825,-0.0702 -0.32828,-0.10274 -0.0388,-0.0118 -0.0388,-0.0118 -0.0784,-0.0238 -0.30252,-0.08 -0.61333,-0.0723 -0.92399,-0.0715 -0.0295,1e-5 -0.059,1e-5 -0.0894,2e-5 -0.44419,10e-4 -0.85094,0.0284 -1.27382,0.17539 -0.0469,0.0154 -0.0937,0.0309 -0.14205,0.0468 -0.56171,0.19973 -1.10981,0.52559 -1.38154,1.07754 -0.10609,0.31371 -0.0751,0.64375 0.0609,0.94332 0.12023,0.19732 0.28992,0.43322 0.50039,0.53846 0.0144,0.25802 0.0241,0.51595 0.0308,0.77428 0.003,0.0876 0.007,0.17518 0.0115,0.26269 0.0417,0.76597 0.0417,0.76597 -0.16838,1.03381 -0.13284,0.14313 -0.27582,0.2626 -0.43529,0.37498 -0.0132,0 -0.0265,0 -0.0401,0 1.2e-4,-0.0265 2.4e-4,-0.053 3.6e-4,-0.0803 9.8e-4,-0.27646 1e-5,-0.55286 -0.002,-0.82931 -5.3e-4,-0.10309 -5.6e-4,-0.20619 -8e-5,-0.30929 6e-4,-0.14843 -5.9e-4,-0.29675 -0.002,-0.44518 5.7e-4,-0.0459 0.001,-0.0918 0.002,-0.13912 -0.004,-0.22337 -0.0114,-0.36316 -0.17504,-0.52442 -0.0247,-0.0198 -0.0494,-0.0397 -0.0749,-0.0601 -0.11513,-0.0973 -0.16026,-0.21295 -0.22403,-0.34872 -0.0118,-0.0245 -0.0236,-0.049 -0.0357,-0.0742 -0.18548,-0.38968 -0.2058,-0.90249 -0.072,-1.31654 0.20132,-0.45561 0.55415,-0.785 0.92876,-1.09875 0.23067,-0.19725 0.44396,-0.41069 0.65689,-0.62666 0.0657,-0.0666 0.13155,-0.13301 0.19746,-0.19938 0.18717,-0.1885 0.37416,-0.37717 0.56074,-0.56626 0.11475,-0.11627 0.2298,-0.23224 0.34505,-0.34803 0.0434,-0.0438 0.0867,-0.0876 0.12994,-0.13158 0.25264,-0.25713 0.50731,-0.48503 0.81222,-0.68045 0.0315,-0.0211 0.063,-0.0422 0.0954,-0.0639 0.59093,-0.39165 1.32834,-0.58695 2.02935,-0.62165 z"
       fill="#9c5b39"
       id="path6"
       style="stroke-width:0.264584" />
    <path
       d="m 180.54123,231.2157 c -0.0595,0.13979 -0.13881,0.22621 -0.24809,0.33078 -0.11331,0.10876 -0.21958,0.22012 -0.32177,0.33923 -0.14024,0.1609 -0.28766,0.31235 -0.43955,0.46219 -0.0261,0.026 -0.0522,0.0519 -0.0791,0.0787 -0.0823,0.0818 -0.16467,0.16344 -0.24711,0.24506 -0.10938,0.10832 -0.21863,0.21677 -0.3278,0.3253 -0.025,0.0247 -0.05,0.0494 -0.0758,0.0748 -0.0232,0.023 -0.0463,0.0461 -0.0702,0.0698 -0.0305,0.0302 -0.0305,0.0302 -0.0617,0.061 -0.0625,0.0648 -0.0625,0.0648 -0.13361,0.17826 -0.14652,-0.0294 -0.27094,-0.0898 -0.40595,-0.15286 -0.49192,-0.22016 -1.06296,-0.33309 -1.6005,-0.3336 -0.026,-4e-5 -0.0521,-8e-5 -0.0789,-1.2e-4 -0.0548,-3e-5 -0.10964,4e-5 -0.16445,2.1e-4 -0.0823,2.1e-4 -0.1645,0 -0.24675,-2.5e-4 -0.31904,-1.4e-4 -0.63412,0.0127 -0.95154,0.0456 0.19619,-0.23702 0.4075,-0.4577 0.62408,-0.67601 0.0397,-0.0402 0.0792,-0.0805 0.11856,-0.12103 0.53989,-0.55613 1.17782,-0.99086 1.9437,-1.1676 0.0468,-0.0111 0.0935,-0.0222 0.14174,-0.0337 0.90882,-0.2012 1.76764,-0.061 2.62478,0.27424 z"
       fill="#f0b15b"
       id="path7"
       style="stroke-width:0.264584" />
    <path
       d="m 179.05774,234.98459 c 0.0397,0.0198 0.0397,0.0198 0.0802,0.0401 0.0209,0.4381 -0.0801,0.69684 -0.35944,1.03588 -0.0816,0.0868 -0.0816,0.0868 -0.16568,0.13458 -0.089,0.0698 -0.089,0.0698 -0.096,0.19877 1.3e-4,0.0521 2.6e-4,0.10416 3.9e-4,0.15781 -2.4e-4,0.0431 -2.4e-4,0.0431 -4.8e-4,0.0872 -2.4e-4,0.0624 -1.1e-4,0.12484 3.4e-4,0.18725 6.9e-4,0.0988 3.9e-4,0.19746 -1.7e-4,0.29622 -0.001,0.20959 -8e-4,0.41917 -4e-4,0.62876 4.6e-4,0.24286 4.2e-4,0.4857 -9.7e-4,0.72855 -2.8e-4,0.0974 3.9e-4,0.19469 10e-4,0.29204 -2.3e-4,0.0596 -5e-4,0.1192 -8.3e-4,0.1788 1.3e-4,0.0521 2.6e-4,0.10416 3.9e-4,0.15782 -0.0197,0.12629 -0.0197,0.12629 -0.08,0.20334 -0.14493,0.0626 -0.28353,0.059 -0.43855,0.0569 -0.034,2e-5 -0.0681,4e-5 -0.10317,4e-5 -0.11238,-8e-5 -0.22474,-0.001 -0.33712,-0.002 -0.078,-2.4e-4 -0.15596,-4e-4 -0.23394,-5.2e-4 -0.20513,-4.5e-4 -0.41025,-0.002 -0.61537,-0.003 -0.20936,-0.001 -0.41872,-0.002 -0.62808,-0.002 -0.41072,-0.001 -0.82142,-0.003 -1.23213,-0.006 0.0383,-0.045 0.0767,-0.09 0.11505,-0.13494 0.0213,-0.025 0.0427,-0.0501 0.0647,-0.0759 0.0919,-0.10558 0.19184,-0.20177 0.29245,-0.29896 0.0711,-0.0731 0.13626,-0.14689 0.20204,-0.22459 0.26591,-0.30621 0.56288,-0.58501 0.85091,-0.87014 0.0797,-0.079 0.15938,-0.15817 0.239,-0.23732 0.024,-0.0237 0.048,-0.0473 0.0727,-0.0717 0.12077,-0.12007 0.23642,-0.24245 0.34778,-0.37134 0.13674,-0.15818 0.28152,-0.30606 0.43031,-0.45286 0.0265,-0.0264 0.0531,-0.0528 0.0804,-0.0799 0.11195,-0.11131 0.22415,-0.22237 0.33632,-0.33346 0.0825,-0.0818 0.16496,-0.16374 0.24736,-0.24567 0.0249,-0.0245 0.0497,-0.0491 0.0753,-0.0743 0.15126,-0.15043 0.29418,-0.30586 0.43316,-0.46771 0.0825,-0.0946 0.17017,-0.18311 0.25958,-0.27114 0.031,-0.0306 0.0619,-0.0612 0.0938,-0.0927 0.0228,-0.0223 0.0456,-0.0447 0.0691,-0.0677 z"
       fill="#f0b15b"
       id="path8"
       style="stroke-width:0.264584" />
    <path
       d="m 181.10256,234.58364 c 10e-4,0.16673 0.002,0.33347 0.002,0.5002 2e-4,0.0564 4.7e-4,0.1129 8.2e-4,0.16935 0.007,1.16167 0.007,1.16167 -0.35635,1.55069 -0.0191,0.0205 -0.0382,0.041 -0.0578,0.0622 -0.0632,0.068 -0.12676,0.13571 -0.19028,0.20344 -0.0456,0.0489 -0.0913,0.0978 -0.13688,0.14675 -0.0947,0.10155 -0.18946,0.20303 -0.28427,0.30447 -0.13227,0.14163 -0.26421,0.28356 -0.39577,0.42585 -0.0196,0.0212 -0.0393,0.0425 -0.0595,0.0643 -0.14585,0.15822 -0.28866,0.31893 -0.42965,0.48151 -0.0283,0.03 -0.0283,0.03 -0.0572,0.0606 -0.0132,0 -0.0265,0 -0.0401,0 -0.13515,-0.66262 -0.3019,-1.54573 0.0867,-2.14905 0.2538,-0.35868 0.57234,-0.66535 0.89316,-0.96329 0.0234,-0.0218 0.0468,-0.0436 0.071,-0.066 0.85485,-0.79103 0.85485,-0.79103 0.95397,-0.79103 z"
       fill="#f0b15b"
       id="path9"
       style="stroke-width:0.264584" />
    <path
       d="m 181.62379,232.33835 c 0.10458,0.10458 0.0945,0.15485 0.0977,0.30071 -0.008,0.41282 -0.21601,0.69802 -0.49868,0.98232 -0.044,0.0384 -0.0885,0.0763 -0.13328,0.1137 -0.26986,0.23409 -0.51723,0.49253 -0.76884,0.74582 -0.0526,0.0528 -0.10524,0.10563 -0.15788,0.15842 -0.1279,0.12835 -0.25569,0.25682 -0.3834,0.38536 -0.0628,-0.12189 -0.10717,-0.23899 -0.14534,-0.37087 -0.0104,-0.0358 -0.0209,-0.0715 -0.0316,-0.10838 -0.008,-0.0271 -0.0155,-0.0542 -0.0235,-0.0821 0.0228,-0.0223 0.0456,-0.0446 0.0691,-0.0677 0.031,-0.0306 0.0619,-0.0612 0.0938,-0.0927 0.0302,-0.0298 0.0605,-0.0595 0.0916,-0.0902 0.0818,-0.0848 0.15891,-0.17037 0.23561,-0.25966 0.13882,-0.15914 0.28458,-0.3091 0.43488,-0.45734 0.0258,-0.0257 0.0516,-0.0513 0.0783,-0.0778 0.0815,-0.081 0.16306,-0.16183 0.24469,-0.24265 0.10798,-0.1069 0.21582,-0.21394 0.32358,-0.32107 0.0244,-0.0241 0.0488,-0.0481 0.0739,-0.0729 0.14224,-0.14143 0.27339,-0.28687 0.39938,-0.44299 z"
       fill="#f0b05b"
       id="path10"
       style="stroke-width:0.264584" />
  </g>
</svg>
