<svg xmlns="http://www.w3.org/2000/svg" width="40.832" height="40.832" viewBox="0 0 40.832 40.832">
  <g id="Group_2899" data-name="Group 2899" transform="translate(-130 -850.618)">
    <path id="Path_83" data-name="Path 83" d="M5562.8,1665.427a20.416,20.416,0,1,1,20.416-20.416A20.439,20.439,0,0,1,5562.8,1665.427Zm0-38.55a18.134,18.134,0,1,0,18.134,18.134A18.154,18.154,0,0,0,5562.8,1626.877Z" transform="translate(-5412.381 -773.977)" fill="#b7dff6"/>
    <path id="Icon_fa-solid-fire" data-name="Icon fa-solid-fire" d="M7.763.263a.987.987,0,0,1,1.35,0A39.32,39.32,0,0,1,12.9,4.361,17.77,17.77,0,0,1,14.7,2.27a.991.991,0,0,1,1.365,0,21.175,21.175,0,0,1,4.118,5.75,13.747,13.747,0,0,1,1.647,5.453c0,6.218-4.864,11.472-10.916,11.472C4.8,24.951,0,19.692,0,13.474A13.534,13.534,0,0,1,2.212,7.056,31.172,31.172,0,0,1,7.763.263ZM11,20.272a5.884,5.884,0,0,0,3.353-1.023,5.046,5.046,0,0,0,1.369-6.55.649.649,0,0,0-1.1-.1L13.4,14.03a.781.781,0,0,1-1.2-.024c-.8-1.023-2.242-2.851-3.06-3.889a.766.766,0,0,0-1.2,0c-1.647,2.071-2.476,3.377-2.476,4.844,0,3.338,2.471,5.317,5.546,5.317Z" transform="translate(139.26 858.614)" fill="#003972"/>
  </g>
</svg>
