<svg xmlns="http://www.w3.org/2000/svg" width="40.832" height="40.832" viewBox="0 0 40.832 40.832">
  <g id="Group_2892" data-name="Group 2892" transform="translate(-43.052 -665.08)">
    <path id="Path_83" data-name="Path 83" d="M5562.8,1665.427a20.416,20.416,0,1,1,20.416-20.416A20.439,20.439,0,0,1,5562.8,1665.427Zm0-38.549a18.133,18.133,0,1,0,18.133,18.133A18.154,18.154,0,0,0,5562.8,1626.877Z" transform="translate(-5499.329 -959.515)" fill="#b7dff6"/>
    <path id="Path_297" data-name="Path 297" d="M23.808,10.706a5.447,5.447,0,0,0-4.472-2.834,8.368,8.368,0,0,0-2.991.438,8.229,8.229,0,0,1-2.1.4,8.142,8.142,0,0,1-2.094-.4,8.318,8.318,0,0,0-3-.437A5.54,5.54,0,0,0,4.744,10.7a12.64,12.64,0,0,0-1.369,6.368,14.953,14.953,0,0,0,2.09,7c.67,1.163,2.456,3.867,4.555,3.867a5.523,5.523,0,0,0,3.089-.853,2.074,2.074,0,0,1,1.134-.4,2.074,2.074,0,0,1,1.134.4,5.533,5.533,0,0,0,3.091.853c2.1,0,3.885-2.7,4.555-3.867a14.907,14.907,0,0,0,2.09-7A12.732,12.732,0,0,0,23.808,10.706ZM12.155,20.411c-.692,0-1.254-1.123-1.254-2.508s.562-2.508,1.254-2.508,1.254,1.123,1.254,2.508S12.847,20.411,12.155,20.411Zm4.181,0c-.692,0-1.254-1.123-1.254-2.508s.562-2.508,1.254-2.508S17.59,16.517,17.59,17.9,17.028,20.411,16.335,20.411Z" transform="translate(48.903 669.131)" fill="#003972"/>
    <path id="Path_298" data-name="Path 298" d="M18.475,6.138a5.381,5.381,0,0,0,3.074-1.5,5.121,5.121,0,0,0,1.463-3.041.418.418,0,0,0-.447-.467A4.858,4.858,0,0,0,19.5,2.58a5.1,5.1,0,0,0-1.5,3.1.418.418,0,0,0,.476.456Z" transform="translate(45.149 670.859)" fill="#003972"/>
  </g>
</svg>
