<?xml version="1.0" encoding="UTF-8" standalone="no"?>
<!-- Created with Inkscape (http://www.inkscape.org/) -->

<svg
   width="45.508331mm"
   height="45.508335mm"
   viewBox="0 0 45.508331 45.508335"
   version="1.1"
   id="svg1"
   inkscape:version="1.3.2 (091e20e, 2023-11-25, custom)"
   sodipodi:docname="omega-3.svg"
   xmlns:inkscape="http://www.inkscape.org/namespaces/inkscape"
   xmlns:sodipodi="http://sodipodi.sourceforge.net/DTD/sodipodi-0.dtd"
   xmlns="http://www.w3.org/2000/svg"
   xmlns:svg="http://www.w3.org/2000/svg">
  <sodipodi:namedview
     id="namedview1"
     pagecolor="#ffffff"
     bordercolor="#666666"
     borderopacity="1.0"
     inkscape:showpageshadow="2"
     inkscape:pageopacity="0.0"
     inkscape:pagecheckerboard="0"
     inkscape:deskcolor="#d1d1d1"
     inkscape:document-units="mm"
     inkscape:zoom="1.9502576"
     inkscape:cx="7.6912915"
     inkscape:cy="97.935778"
     inkscape:window-width="1920"
     inkscape:window-height="1002"
     inkscape:window-x="-8"
     inkscape:window-y="-8"
     inkscape:window-maximized="1"
     inkscape:current-layer="layer1" />
  <defs
     id="defs1">
    <clipPath
       id="clip-path-2">
      <path
         id="Path_456"
         data-name="Path 456"
         d="M 0,43.142 H 89.2 V -24.624 H 0 Z"
         transform="translate(0,24.624)"
         fill="none" />
    </clipPath>
  </defs>
  <g
     inkscape:label="Layer 1"
     inkscape:groupmode="layer"
     id="layer1"
     transform="translate(-82.574059,-126.0659)">
    <rect
       style="fill:none;stroke:none;stroke-width:1.05833;paint-order:markers stroke fill"
       id="rect2"
       width="45.508331"
       height="45.508335"
       x="82.574059"
       y="126.0659" />
    <g
       id="Group_1679"
       data-name="Group 1679"
       transform="matrix(0.51080389,0,0,0.51080389,50.552208,126.06487)"
       style="stroke-width:0.517974">
      <g
         id="Group_735"
         data-name="Group 735"
         transform="translate(62.686)"
         clip-path="url(#clip-path-2)"
         style="stroke-width:0.517974">
        <g
           id="Group_722"
           data-name="Group 722"
           transform="translate(-0.001,0.002)"
           style="stroke-width:0.517974">
          <path
             id="Path_443"
             data-name="Path 443"
             d="m 41.974,50.274 a 34.227,34.227 0 0 1 2.673,-2.359 c 0.914,-0.759 1.825,-1.523 2.72,-2.3 1.805,-1.538 3.576,-3.107 5.284,-4.738 a 84.609,84.609 0 0 0 9.449,-10.431 58.8,58.8 0 0 0 3.87,-5.788 41.134,41.134 0 0 0 2.948,-6.21 32.732,32.732 0 0 0 1.712,-6.54 26.175,26.175 0 0 0 0.163,-6.671 19.847,19.847 0 0 0 -1.759,-6.206 20.19,20.19 0 0 0 -3.611,-5.319 19.74,19.74 0 0 0 -5.094,-3.882 20.729,20.729 0 0 0 -6.067,-2.073 24.75,24.75 0 0 0 -6.5,-0.263 l -0.713,0.1 c -0.244,0.039 -0.508,0.093 -0.763,0.139 -0.508,0.108 -1.019,0.229 -1.519,0.387 a 19.948,19.948 0 0 0 -2.948,1.17 25.715,25.715 0 0 0 -5.389,3.62 30.2,30.2 0 0 0 -2.387,2.29 c -0.376,0.4 -0.744,0.814 -1.1,1.236 l -0.511,0.628 c -0.159,0.2 -0.345,0.446 -0.449,0.6 l -1.969,2.785 -1.964,-2.82 c -0.108,-0.155 -0.291,-0.4 -0.449,-0.608 -0.158,-0.208 -0.333,-0.43 -0.508,-0.643 Q 26.57,-4.268 26,-4.882 a 30.853,30.853 0 0 0 -2.379,-2.344 25.36,25.36 0 0 0 -5.4,-3.7 17.916,17.916 0 0 0 -6.044,-1.852 l -0.732,-0.07 -0.895,-0.035 c -0.147,0 -0.31,-0.015 -0.442,-0.015 l -0.391,0.008 c -0.263,0 -0.519,0 -0.79,0.012 a 26.028,26.028 0 0 0 -3.25,0.333 20.86,20.86 0 0 0 -6.121,2.088 19.769,19.769 0 0 0 -5.137,3.921 20.933,20.933 0 0 0 -3.619,5.397 20.042,20.042 0 0 0 -1.716,6.3 l -0.023,0.205 c 0,-0.012 0,0.054 0,-0.015 V 5.382 5.436 5.548 L -10.978,6 l -0.031,0.449 -0.008,0.4 c -0.023,0.531 -0.008,1.1 0,1.658 a 26.418,26.418 0 0 0 0.349,3.351 32.766,32.766 0 0 0 1.852,6.571 42.247,42.247 0 0 0 3.116,6.21 60.073,60.073 0 0 0 4.006,5.78 89.661,89.661 0 0 0 9.68,10.422 c 1.739,1.631 3.541,3.2 5.37,4.746 l 2.754,2.305 a 31.54,31.54 0 0 1 2.7,2.383 A 13.487,13.487 0 0 0 17.377,49.2 L 15.893,48.185 12.925,46.14 Q 9.985,44.06 7.145,41.809 4.305,39.558 1.652,37.083 C -0.115,35.428 -1.823,33.7 -3.443,31.876 a 56.11,56.11 0 0 1 -4.509,-5.792 44.73,44.73 0 0 1 -3.665,-6.454 32.84,32.84 0 0 1 -2.371,-7.144 29.987,29.987 0 0 1 -0.535,-3.773 C -14.562,8.074 -14.6,7.442 -14.6,6.776 v -0.5 l 0.012,-0.449 0.015,-0.449 0.008,-0.263 0.019,-0.244 a 23.639,23.639 0 0 1 1.743,-7.582 23.411,23.411 0 0 1 4.157,-6.622 23.911,23.911 0 0 1 6.121,-4.912 25.112,25.112 0 0 1 7.365,-2.724 28.482,28.482 0 0 1 3.886,-0.488 c 0.325,-0.019 0.67,-0.015 1.007,-0.027 l 0.5,-0.008 c 0.167,0 0.306,0 0.457,0.008 l 0.9,0.023 1.062,0.081 a 22.584,22.584 0 0 1 7.659,2.228 29.614,29.614 0 0 1 6.449,4.362 36.1,36.1 0 0 1 2.754,2.69 q 0.651,0.709 1.267,1.457 c 0.205,0.248 0.407,0.5 0.608,0.763 0.201,0.263 0.384,0.5 0.616,0.841 l -3.936,-0.027 c 0.236,-0.333 0.415,-0.562 0.624,-0.825 0.209,-0.263 0.407,-0.5 0.612,-0.748 0.415,-0.488 0.837,-0.961 1.275,-1.422 a 34.686,34.686 0 0 1 2.762,-2.627 29.442,29.442 0 0 1 6.431,-4.25 24.2,24.2 0 0 1 3.68,-1.406 c 0.631,-0.19 1.282,-0.337 1.933,-0.469 0.333,-0.054 0.651,-0.12 0.992,-0.167 l 1.05,-0.124 0.9,-0.062 0.291,-0.015 h 0.24 0.48 c 0.643,-0.023 1.286,0.015 1.929,0.035 a 28.513,28.513 0 0 1 3.843,0.508 26.27,26.27 0 0 1 3.746,1.062 26.182,26.182 0 0 1 3.543,1.625 23.983,23.983 0 0 1 6.071,4.858 22.914,22.914 0 0 1 4.159,6.532 23.52,23.52 0 0 1 1.8,7.516 29.812,29.812 0 0 1 -0.469,7.52 33.071,33.071 0 0 1 -2.216,7.117 44.2,44.2 0 0 1 -3.5,6.466 54.158,54.158 0 0 1 -4.374,5.815 C 62.3,33.7 60.628,35.444 58.892,37.1 c -1.736,1.656 -3.533,3.243 -5.4,4.742 -1.867,1.499 -3.758,2.94 -5.7,4.324 -0.972,0.686 -1.953,1.364 -2.929,2.034 L 43.4,49.209 a 14.612,14.612 0 0 0 -1.422,1.065"
             transform="translate(14.604,17.492)"
             fill="#ff311c"
             style="stroke-width:0.517974" />
        </g>
        <g
           id="Group_723"
           data-name="Group 723"
           transform="translate(6.073,22.518)"
           style="stroke-width:0.517974">
          <path
             id="Path_444"
             data-name="Path 444"
             d="M 8.321,5.159 A 4.114,4.114 0 0 0 8.1,3.764 3,3 0 0 0 7.422,2.671 3.144,3.144 0 0 0 6.31,1.947 4.069,4.069 0 0 0 4.795,1.687 3.438,3.438 0 0 0 2.215,2.644 3.433,3.433 0 0 0 1.27,5.159 3.435,3.435 0 0 0 2.215,7.677 3.436,3.436 0 0 0 4.791,8.642 3.9,3.9 0 0 0 6.709,8.2 2.99,2.99 0 0 0 7.909,6.968 3.839,3.839 0 0 0 8.32,5.163 m 4.165,0 A 7.118,7.118 0 0 1 11.61,8.65 6.319,6.319 0 0 1 9.01,11.184 8.767,8.767 0 0 1 4.795,12.122 8.57,8.57 0 0 1 0.541,11.146 6.387,6.387 0 0 1 -2.05,8.572 7.194,7.194 0 0 1 -2.9,5.159 7.173,7.173 0 0 1 -2.059,1.742 6.269,6.269 0 0 1 0.534,-0.819 8.6,8.6 0 0 1 4.791,-1.8 9.387,9.387 0 0 1 8.138,-1.242 6.686,6.686 0 0 1 10.56,0.274 6.36,6.36 0 0 1 12,2.494 7.344,7.344 0 0 1 12.488,5.159"
             transform="translate(2.895,1.795)"
             fill="#2b2e34"
             style="stroke-width:0.517974" />
        </g>
        <g
           id="Group_724"
           data-name="Group 724"
           transform="translate(23.996,22.707)"
           style="stroke-width:0.517974">
          <path
             id="Path_445"
             data-name="Path 445"
             d="M 11.695,10.054 H 7.608 V 2.2 L 3.919,6.749 H 3.6 L -0.1,2.2 v 7.853 H -4.069 V -3.5 h 3.708 L 3.8,1.585 7.987,-3.5 h 3.708 z"
             transform="translate(4.069,3.498)"
             fill="#2b2e34"
             style="stroke-width:0.517974" />
        </g>
        <g
           id="Group_725"
           data-name="Group 725"
           transform="translate(43.18,22.707)"
           style="stroke-width:0.517974">
          <path
             id="Path_446"
             data-name="Path 446"
             d="M 7.582,10.054 H -2.638 V -3.5 H 7.415 v 2.718 H 1.449 V 1.7 H 7.14 V 4.432 H 1.449 v 2.894 h 6.133 z"
             transform="translate(2.638,3.498)"
             fill="#2b2e34"
             style="stroke-width:0.517974" />
        </g>
        <g
           id="Group_726"
           data-name="Group 726"
           transform="translate(55.258,22.519)"
           style="stroke-width:0.517974">
          <path
             id="Path_447"
             data-name="Path 447"
             d="M 10.134,9.482 C 9.84,9.594 9.588,9.682 9.382,9.757 9.176,9.832 8.971,9.893 8.782,9.951 8.593,10.009 8.313,10.087 7.949,10.176 A 18.463,18.463 0 0 1 6.09,10.5 16.439,16.439 0 0 1 4.141,10.612 9.544,9.544 0 0 1 0.325,9.861 a 6.242,6.242 0 0 1 -2.8,-2.336 6.869,6.869 0 0 1 -1.05,-3.89 8.226,8.226 0 0 1 0.541,-2.92 5.1,5.1 0 0 1 1.658,-2.294 7.775,7.775 0 0 1 1.864,-1.089 7.978,7.978 0 0 1 1.84,-0.5 14.2,14.2 0 0 1 1.988,-0.132 13.246,13.246 0 0 1 2.952,0.271 q 1.162,0.267 2.553,0.709 v 3.2 A 11.379,11.379 0 0 0 7.926,-0.02 7.847,7.847 0 0 0 5.361,-0.38 5.215,5.215 0 0 0 2.533,0.3 3.731,3.731 0 0 0 1.053,1.9 4.433,4.433 0 0 0 0.638,3.7 3.822,3.822 0 0 0 1.118,5.591 3.505,3.505 0 0 0 2.564,6.975 4.867,4.867 0 0 0 4.9,7.5 7.431,7.431 0 0 0 6.562,7.295 V 5.7 H 4.726 V 2.969 h 5.408 z"
             transform="translate(3.526,3.299)"
             fill="#2b2e34"
             style="stroke-width:0.517974" />
        </g>
        <g
           id="Group_727"
           data-name="Group 727"
           transform="translate(70.246,22.705)"
           style="stroke-width:0.517974">
          <path
             id="Path_448"
             data-name="Path 448"
             d="M 7.611,6.268 5.627,1.321 3.62,6.268 Z m 6.23,5.106 H 9.656 L 8.548,8.624 H 2.663 L 1.54,11.375 h -4.188 l 6,-13.556 h 4.514 z"
             transform="translate(2.648,2.181)"
             fill="#2b2e34"
             style="stroke-width:0.517974" />
        </g>
        <g
           id="Group_728"
           data-name="Group 728"
           transform="translate(39.875,39.899)"
           style="stroke-width:0.517974">
          <path
             id="Path_449"
             data-name="Path 449"
             d="m 8.962,10.111 a 5.008,5.008 0 0 1 -0.573,2.483 4.872,4.872 0 0 1 -1.519,1.677 6.559,6.559 0 0 1 -2,0.938 7.862,7.862 0 0 1 -2.046,0.287 13.771,13.771 0 0 1 -3.1,-0.4 14.232,14.232 0 0 1 -2.847,-0.941 V 10 A 10.043,10.043 0 0 0 -1.1,11.308 5.019,5.019 0 0 0 1.131,11.835 3.076,3.076 0 0 0 2.6,11.514 2.312,2.312 0 0 0 3.495,10.704 1.953,1.953 0 0 0 3.795,9.67 2.177,2.177 0 0 0 3.423,8.415 2.6,2.6 0 0 0 2.338,7.539 3.9,3.9 0 0 0 0.69,7.213 H 0.09 V 4.234 H 0.8 A 2.988,2.988 0 0 0 2.341,3.87 2.252,2.252 0 0 0 3.217,3.01 2.007,2.007 0 0 0 3.484,2.069 2.061,2.061 0 0 0 2.837,0.577 2.281,2.281 0 0 0 1.159,-0.07 5.781,5.781 0 0 0 -0.759,0.279 7.919,7.919 0 0 0 -2.622,1.213 V -2.34 A 19.482,19.482 0 0 1 -0.158,-3.2 9.939,9.939 0 0 1 2.442,-3.514 6.875,6.875 0 0 1 5.947,-2.7 5.291,5.291 0 0 1 8,-0.733 4.462,4.462 0 0 1 8.651,1.44 4.113,4.113 0 0 1 8.3,3.1 5.473,5.473 0 0 1 7.35,4.567 a 5.049,5.049 0 0 1 -1.209,1 6.482,6.482 0 0 1 1.964,1.633 4.472,4.472 0 0 1 0.856,2.913"
             transform="translate(3.118,3.518)"
             fill="#2b2e34"
             style="stroke-width:0.517974" />
        </g>
        <g
           id="Group_729"
           data-name="Group 729"
           transform="translate(4.579,21.211)"
           style="stroke-width:0.517974">
          <path
             id="Path_450"
             data-name="Path 450"
             d="M 8.321,5.159 A 4.114,4.114 0 0 0 8.1,3.764 3,3 0 0 0 7.422,2.671 3.144,3.144 0 0 0 6.31,1.947 4.069,4.069 0 0 0 4.795,1.687 3.438,3.438 0 0 0 2.215,2.644 3.433,3.433 0 0 0 1.27,5.159 3.435,3.435 0 0 0 2.215,7.677 3.436,3.436 0 0 0 4.791,8.642 3.9,3.9 0 0 0 6.709,8.2 2.99,2.99 0 0 0 7.909,6.968 3.839,3.839 0 0 0 8.32,5.163 m 4.165,0 A 7.118,7.118 0 0 1 11.61,8.65 6.319,6.319 0 0 1 9.01,11.184 8.767,8.767 0 0 1 4.795,12.122 8.57,8.57 0 0 1 0.541,11.146 6.387,6.387 0 0 1 -2.05,8.572 7.194,7.194 0 0 1 -2.9,5.159 7.173,7.173 0 0 1 -2.059,1.742 6.269,6.269 0 0 1 0.534,-0.819 8.6,8.6 0 0 1 4.791,-1.8 9.387,9.387 0 0 1 8.138,-1.242 6.686,6.686 0 0 1 10.56,0.274 6.36,6.36 0 0 1 12,2.494 7.344,7.344 0 0 1 12.488,5.159"
             transform="translate(2.895,1.795)"
             fill="#ff9234"
             style="stroke-width:0.517974" />
        </g>
        <g
           id="Group_730"
           data-name="Group 730"
           transform="translate(22.501,21.399)"
           style="stroke-width:0.517974">
          <path
             id="Path_451"
             data-name="Path 451"
             d="M 11.695,10.054 H 7.608 V 2.2 L 3.919,6.749 H 3.6 L -0.1,2.2 v 7.853 H -4.069 V -3.5 h 3.708 L 3.8,1.585 7.987,-3.5 h 3.708 z"
             transform="translate(4.069,3.498)"
             fill="#ff9234"
             style="stroke-width:0.517974" />
        </g>
        <g
           id="Group_731"
           data-name="Group 731"
           transform="translate(41.686,21.399)"
           style="stroke-width:0.517974">
          <path
             id="Path_452"
             data-name="Path 452"
             d="M 7.582,10.054 H -2.638 V -3.5 H 7.415 v 2.718 H 1.449 V 1.7 H 7.14 V 4.432 H 1.449 v 2.894 h 6.133 z"
             transform="translate(2.638,3.498)"
             fill="#ff9234"
             style="stroke-width:0.517974" />
        </g>
        <g
           id="Group_732"
           data-name="Group 732"
           transform="translate(53.763,21.212)"
           style="stroke-width:0.517974">
          <path
             id="Path_453"
             data-name="Path 453"
             d="M 10.134,9.482 C 9.84,9.594 9.588,9.682 9.382,9.757 9.176,9.832 8.971,9.893 8.782,9.951 8.593,10.009 8.313,10.087 7.949,10.176 A 18.463,18.463 0 0 1 6.09,10.5 16.439,16.439 0 0 1 4.141,10.612 9.544,9.544 0 0 1 0.325,9.861 a 6.242,6.242 0 0 1 -2.8,-2.336 6.869,6.869 0 0 1 -1.05,-3.89 8.226,8.226 0 0 1 0.541,-2.92 5.1,5.1 0 0 1 1.658,-2.294 7.775,7.775 0 0 1 1.864,-1.089 7.978,7.978 0 0 1 1.84,-0.5 14.2,14.2 0 0 1 1.988,-0.132 13.246,13.246 0 0 1 2.952,0.271 q 1.162,0.267 2.553,0.709 v 3.2 A 11.379,11.379 0 0 0 7.926,-0.02 7.847,7.847 0 0 0 5.361,-0.38 5.215,5.215 0 0 0 2.533,0.3 3.731,3.731 0 0 0 1.053,1.9 4.433,4.433 0 0 0 0.638,3.7 3.822,3.822 0 0 0 1.118,5.591 3.505,3.505 0 0 0 2.564,6.975 4.867,4.867 0 0 0 4.9,7.5 7.431,7.431 0 0 0 6.562,7.295 V 5.7 H 4.726 V 2.969 h 5.408 z"
             transform="translate(3.526,3.299)"
             fill="#ff9234"
             style="stroke-width:0.517974" />
        </g>
        <g
           id="Group_733"
           data-name="Group 733"
           transform="translate(68.752,21.397)"
           style="stroke-width:0.517974">
          <path
             id="Path_454"
             data-name="Path 454"
             d="M 7.611,6.268 5.627,1.321 3.62,6.268 Z m 6.23,5.106 H 9.656 L 8.548,8.624 H 2.663 L 1.54,11.375 h -4.188 l 6,-13.556 h 4.514 z"
             transform="translate(2.648,2.181)"
             fill="#ff9234"
             style="stroke-width:0.517974" />
        </g>
        <g
           id="Group_734"
           data-name="Group 734"
           transform="translate(38.381,38.592)"
           style="stroke-width:0.517974">
          <path
             id="Path_455"
             data-name="Path 455"
             d="m 8.962,10.111 a 5.008,5.008 0 0 1 -0.573,2.483 4.872,4.872 0 0 1 -1.519,1.677 6.559,6.559 0 0 1 -2,0.938 7.862,7.862 0 0 1 -2.046,0.287 13.771,13.771 0 0 1 -3.1,-0.4 14.232,14.232 0 0 1 -2.847,-0.941 V 10 A 10.043,10.043 0 0 0 -1.1,11.308 5.019,5.019 0 0 0 1.131,11.835 3.076,3.076 0 0 0 2.6,11.514 2.312,2.312 0 0 0 3.495,10.704 1.953,1.953 0 0 0 3.795,9.67 2.177,2.177 0 0 0 3.423,8.415 2.6,2.6 0 0 0 2.338,7.539 3.9,3.9 0 0 0 0.69,7.213 H 0.09 V 4.234 H 0.8 A 2.988,2.988 0 0 0 2.341,3.87 2.252,2.252 0 0 0 3.217,3.01 2.007,2.007 0 0 0 3.484,2.069 2.061,2.061 0 0 0 2.837,0.577 2.281,2.281 0 0 0 1.159,-0.07 5.781,5.781 0 0 0 -0.759,0.279 7.919,7.919 0 0 0 -2.622,1.213 V -2.34 A 19.482,19.482 0 0 1 -0.158,-3.2 9.939,9.939 0 0 1 2.442,-3.514 6.875,6.875 0 0 1 5.947,-2.7 5.291,5.291 0 0 1 8,-0.733 4.462,4.462 0 0 1 8.651,1.44 4.113,4.113 0 0 1 8.3,3.1 5.473,5.473 0 0 1 7.35,4.567 a 5.049,5.049 0 0 1 -1.209,1 6.482,6.482 0 0 1 1.964,1.633 4.472,4.472 0 0 1 0.856,2.913"
             transform="translate(3.118,3.518)"
             fill="#ff9234"
             style="stroke-width:0.517974" />
        </g>
      </g>
    </g>
  </g>
</svg>
