<?xml version="1.0" encoding="UTF-8" standalone="no"?>
<!-- Created with Inkscape (http://www.inkscape.org/) -->

<svg
   width="45.508327mm"
   height="45.508335mm"
   viewBox="0 0 45.508327 45.508335"
   version="1.1"
   id="svg1"
   inkscape:version="1.3.2 (091e20e, 2023-11-25, custom)"
   sodipodi:docname="organic-eggs.svg"
   xmlns:inkscape="http://www.inkscape.org/namespaces/inkscape"
   xmlns:sodipodi="http://sodipodi.sourceforge.net/DTD/sodipodi-0.dtd"
   xmlns="http://www.w3.org/2000/svg"
   xmlns:svg="http://www.w3.org/2000/svg">
  <sodipodi:namedview
     id="namedview1"
     pagecolor="#ffffff"
     bordercolor="#666666"
     borderopacity="1.0"
     inkscape:showpageshadow="2"
     inkscape:pageopacity="0.0"
     inkscape:pagecheckerboard="0"
     inkscape:deskcolor="#d1d1d1"
     inkscape:document-units="mm"
     inkscape:zoom="0.97512882"
     inkscape:cx="-77.93842"
     inkscape:cy="272.78447"
     inkscape:window-width="1920"
     inkscape:window-height="1002"
     inkscape:window-x="-8"
     inkscape:window-y="-8"
     inkscape:window-maximized="1"
     inkscape:current-layer="layer1" />
  <defs
     id="defs1">
    <clipPath
       id="clip-path-10">
      <path
         id="Path_462"
         data-name="Path 462"
         d="M 140.976,42.194 H 213.16 V -29.99 h -72.184 z"
         transform="translate(-140.976,29.99)"
         fill="none" />
    </clipPath>
  </defs>
  <g
     inkscape:label="Layer 1"
     inkscape:groupmode="layer"
     id="layer1"
     transform="translate(-92.865105,-104.65161)">
    <g
       id="Group_1681"
       data-name="Group 1681"
       transform="matrix(0.63093852,0,0,0.63093852,48.007263,104.65035)"
       style="stroke-width:0.419349">
      <g
         id="Group_740"
         data-name="Group 740"
         transform="translate(71.044)"
         clip-path="url(#clip-path-10)"
         style="stroke-width:0.419349">
        <g
           id="Group_738"
           data-name="Group 738"
           transform="translate(0.058,0.002)"
           style="stroke-width:0.419349">
          <path
             id="Path_460"
             data-name="Path 460"
             d="M 45.2,22.63 A 36.064,36.064 0 1 1 9.142,-13.461 36.078,36.078 0 0 1 45.2,22.63"
             transform="translate(26.923,13.461)"
             fill="#12ae4d"
             style="stroke-width:0.419349" />
        </g>
        <g
           id="Group_739"
           data-name="Group 739"
           transform="translate(14.601,12.797)"
           style="stroke-width:0.419349">
          <path
             id="Path_461"
             data-name="Path 461"
             d="m 0.384,28.04 a 12.82,12.82 0 0 0 2.96,1.871 c 0.313,-0.051 0.78,-1.56 1.248,-2.443 0.468,-0.883 3.844,-6.033 4.833,-6.708 0.986,0.676 6.079,4.419 16.522,1.4 C 36.39,19.141 42.469,9.475 42.782,1.311 c 0.313,-8.164 -1.768,-15.079 -3.638,-17.99 -2.65,1.871 -4.313,5.2 -12.728,6.968 C 18.001,-7.943 11.451,-5.759 9.112,-3.783 6.773,-1.807 0.124,6.044 4.437,14.832 7.346,13.167 7.087,10.674 17.529,6.617 27.971,2.56 34.314,-1.6 35.924,-6.488 35.091,-0.351 26.467,5.473 20.648,8.333 14.829,11.193 8.491,14.677 5.112,18.835 c -3.379,4.158 -6.757,7.732 -4.729,9.2"
             transform="translate(0.229,16.679)"
             fill="#ffffff"
             style="stroke-width:0.419349" />
        </g>
      </g>
    </g>
  </g>
</svg>
