<?xml version="1.0" encoding="UTF-8" standalone="no"?>
<svg
   width="25.5"
   height="25.686"
   viewBox="0 0 25.5 25.686"
   version="1.1"
   id="svg1"
   sodipodi:docname="plus-blue-icon.svg"
   inkscape:version="1.3.2 (091e20e, 2023-11-25, custom)"
   xmlns:inkscape="http://www.inkscape.org/namespaces/inkscape"
   xmlns:sodipodi="http://sodipodi.sourceforge.net/DTD/sodipodi-0.dtd"
   xmlns="http://www.w3.org/2000/svg"
   xmlns:svg="http://www.w3.org/2000/svg">
  <defs
     id="defs1" />
  <sodipodi:namedview
     id="namedview1"
     pagecolor="#ffffff"
     bordercolor="#666666"
     borderopacity="1.0"
     inkscape:showpageshadow="2"
     inkscape:pageopacity="0.0"
     inkscape:pagecheckerboard="0"
     inkscape:deskcolor="#d1d1d1"
     inkscape:zoom="30.133145"
     inkscape:cx="12.743442"
     inkscape:cy="12.843"
     inkscape:window-width="1920"
     inkscape:window-height="1002"
     inkscape:window-x="-8"
     inkscape:window-y="-8"
     inkscape:window-maximized="1"
     inkscape:current-layer="svg1" />
  <g
     id="Group_2893"
     data-name="Group 2893"
     transform="translate(-324.448 -650.285)"
     style="fill:#b7dff6;fill-opacity:1">
    <path
       id="Path_134"
       data-name="Path 134"
       d="M6083.236,312.179a27.115,27.115,0,0,0-1.388-4.3,11.771,11.771,0,0,0-2.7-3.826,16.412,16.412,0,0,0-3.783-2.728,12.846,12.846,0,0,0-2.186-.915,8.864,8.864,0,0,0-2.391-.434,7.144,7.144,0,0,0-2.395.287,7.874,7.874,0,0,0-1.1.436,1.874,1.874,0,0,0-.923.776,2.661,2.661,0,0,0,1.185-.009c.362-.062.723-.1,1.076-.142a11,11,0,0,1,2.092-.089,7.474,7.474,0,0,1,2.023.424,11.4,11.4,0,0,1,1.931.867,14.881,14.881,0,0,1,3.372,2.566,10.157,10.157,0,0,1,2.278,3.4,30.453,30.453,0,0,1,1.224,4.068,6.354,6.354,0,0,1,.24,1.921,4.8,4.8,0,0,1-.537,1.777,15.7,15.7,0,0,1-5.307,6.337,10.756,10.756,0,0,1-8.057,1.113,10.388,10.388,0,0,1-3.876-1.491,10.127,10.127,0,0,1-2.848-2.964,14.968,14.968,0,0,1-2.091-8.054,7.955,7.955,0,0,1,1.1-3.981c.708-1.241,1.719-2.26,2.576-3.508a8.178,8.178,0,0,0-3.263,3.118,9.154,9.154,0,0,0-.991,2.074,9.633,9.633,0,0,0-.416,2.253,17.86,17.86,0,0,0,.312,4.489,13.865,13.865,0,0,0,1.574,4.293,10.98,10.98,0,0,0,3.155,3.489,9.948,9.948,0,0,0,2.132,1.154,15.6,15.6,0,0,0,2.275.691,14.743,14.743,0,0,0,4.767.311,10.877,10.877,0,0,0,4.6-1.538,14.084,14.084,0,0,0,3.507-3.169,21.354,21.354,0,0,0,2.468-3.885,6.453,6.453,0,0,0,.676-2.408A7.915,7.915,0,0,0,6083.236,312.179Z"
       transform="translate(-5733.601 350.315)"
       fill="#003972"
       style="fill:#b7dff6;fill-opacity:1" />
    <path
       id="Path_137"
       data-name="Path 137"
       d="M6085.939,319.878a1.227,1.227,0,0,0-.4.022,11.285,11.285,0,0,1-2.387.035c-.884-.086-1.729-.1-2.605-.1a1.09,1.09,0,0,1-.333,0c-.26-.119-.1-.839-.089-1.11.038-.965.075-1.93.1-2.9.01-.349.165-1.658-.156-1.826a2.543,2.543,0,0,0-.824,0,8.715,8.715,0,0,0-1.569,0c-.393.077-.088.314-.03.609a6.6,6.6,0,0,1-.043,1.47l-.069,1.551a14.469,14.469,0,0,0-.01,1.734c.026.34.117.441-.243.463-.265.017-.534.022-.8.024l-.855,0c-1.16.005-2.362.115-3.519.039-.212-.014-.316-.129-.4.055a1.384,1.384,0,0,0,0,.426v.787a4.574,4.574,0,0,0,0,.929c.088.393.6.191.928.209q1.9.1,3.811.123c.53.006,1.027-.165,1.1.47.046.4-.011.809,0,1.214q.042,1.638.032,3.276c0,.166-.09.629,0,.766.1.166.379.1.559.1.556.006,1.11.015,1.666,0,.377-.013.32-.14.3-.5q-.03-.629-.03-1.26c0-1.057.051-2.108.051-3.159a2.486,2.486,0,0,1,0-.811c.111-.2.838-.155,1.082-.17a11.314,11.314,0,0,1,1.364-.017,11.963,11.963,0,0,0,1.971.071c.379-.041,1.138.2,1.438-.068.226-.2.037-.673,0-.923a4.043,4.043,0,0,1-.007-1.144C6086.013,320.011,6086.021,319.908,6085.939,319.878Z"
       transform="translate(-5742.502 342.017)"
       fill="#003972"
       style="fill:#b7dff6;fill-opacity:1" />
  </g>
</svg>
