<svg xmlns="http://www.w3.org/2000/svg" width="40.832" height="40.832" viewBox="0 0 40.832 40.832">
  <g id="Group_2898" data-name="Group 2898" transform="translate(-157.645 -909.618)">
    <path id="Path_447" data-name="Path 447" d="M5562.8,1665.427a20.416,20.416,0,1,1,20.416-20.416A20.439,20.439,0,0,1,5562.8,1665.427Zm0-38.55a18.134,18.134,0,1,0,18.134,18.134A18.154,18.154,0,0,0,5562.8,1626.877Z" transform="translate(-5384.736 -714.977)" fill="#b7dff6"/>
    <path id="Path_299" data-name="Path 299" d="M18.243,11.458a3.95,3.95,0,0,0,2.812-1.165l3.826-3.824a.81.81,0,0,0,.042-1.113.8.8,0,0,0-1.151-.028l-3.41,3.408a.611.611,0,0,1-.863,0,.628.628,0,0,1,.012-.877l3.4-3.4a.8.8,0,0,0-.028-1.151.776.776,0,0,0-.526-.2.83.83,0,0,0-.587.243L18.373,6.748a.611.611,0,0,1-.863,0,.628.628,0,0,1,.012-.877l3.4-3.395a.8.8,0,0,0-.028-1.151.776.776,0,0,0-.526-.2.831.831,0,0,0-.587.243L15.954,5.192A3.95,3.95,0,0,0,14.789,8v.409a.8.8,0,0,1-.233.563l-1.77,1.77a.2.2,0,0,1-.281,0L3.894,2.135a.8.8,0,0,0-1.122,0A4.168,4.168,0,0,0,1.617,5.177a9.2,9.2,0,0,0,2.822,6.166l4.246,4.246a3.22,3.22,0,0,0,2.274.941,3.18,3.18,0,0,0,.806-.1.807.807,0,0,1,.2-.026.792.792,0,0,1,.538.211l.566.523a.8.8,0,0,1,.229.558v.275a2.372,2.372,0,0,0,.684,1.672l4.475,4.55,0,0a2.648,2.648,0,1,0,3.745-3.745L15.5,13.742a.2.2,0,0,1,0-.281l1.77-1.77a.8.8,0,0,1,.563-.233Z" transform="translate(165.588 917.206)" fill="#003972"/>
    <path id="Path_300" data-name="Path 300" d="M10.817,24.255a4.836,4.836,0,0,1-3.4-1.4l-.689-.689a.4.4,0,0,0-.562,0l-4.224,4.2A2.81,2.81,0,0,0,1.3,29.311a1.522,1.522,0,0,0,.074.179,2.809,2.809,0,0,0,2.539,1.623,2.767,2.767,0,0,0,1.97-.817l5.633-5.66a.233.233,0,0,0,.066-.185v-.013a.23.23,0,0,0-.256-.212A4.825,4.825,0,0,1,10.817,24.255Z" transform="translate(165.73 911.071)" fill="#003972"/>
  </g>
</svg>
