<?xml version="1.0" encoding="UTF-8" standalone="no"?>
<!-- Created with Inkscape (http://www.inkscape.org/) -->

<svg
   width="19.049999mm"
   height="19.049999mm"
   viewBox="0 0 19.049999 19.049999"
   version="1.1"
   id="svg1"
   inkscape:version="1.3.2 (091e20e, 2023-11-25, custom)"
   sodipodi:docname="regular-eggs.svg"
   xmlns:inkscape="http://www.inkscape.org/namespaces/inkscape"
   xmlns:sodipodi="http://sodipodi.sourceforge.net/DTD/sodipodi-0.dtd"
   xmlns="http://www.w3.org/2000/svg"
   xmlns:svg="http://www.w3.org/2000/svg">
  <sodipodi:namedview
     id="namedview1"
     pagecolor="#ffffff"
     bordercolor="#666666"
     borderopacity="1.0"
     inkscape:showpageshadow="2"
     inkscape:pageopacity="0.0"
     inkscape:pagecheckerboard="0"
     inkscape:deskcolor="#d1d1d1"
     inkscape:document-units="mm"
     inkscape:zoom="2.7580808"
     inkscape:cx="48.947079"
     inkscape:cy="90.280169"
     inkscape:window-width="1920"
     inkscape:window-height="1002"
     inkscape:window-x="-8"
     inkscape:window-y="-8"
     inkscape:window-maximized="1"
     inkscape:current-layer="layer1" />
  <defs
     id="defs1">
    <clipPath
       id="clip-path">
      <rect
         id="Rectangle_333"
         data-name="Rectangle 333"
         width="37.990002"
         height="54.122002"
         fill="none"
         x="0"
         y="0" />
    </clipPath>
  </defs>
  <g
     inkscape:label="Layer 1"
     inkscape:groupmode="layer"
     id="layer1"
     transform="translate(-96.450149,-134.43268)">
    <g
       id="Group_2890"
       data-name="Group 2890"
       transform="matrix(0.2639089,0,0,0.2639089,72.502792,120.67643)"
       style="stroke-width:1.00256">
      <g
         id="Group_2880"
         data-name="Group 2880"
         transform="translate(90.741,52.125)"
         style="stroke-width:1.00256">
        <path
           id="Path_2376"
           data-name="Path 2376"
           d="M 36.092,0 A 36.092,36.092 0 1 1 0,36.092 36.092,36.092 0 0 1 36.092,0 Z"
           fill="#003972"
           style="stroke-width:1.00256" />
        <g
           id="Group_2879"
           data-name="Group 2879"
           transform="translate(17.453,8.201)"
           clip-path="url(#clip-path)"
           style="stroke-width:1.00256">
          <path
             id="Path_2719"
             data-name="Path 2719"
             d="m 36.392,121.377 c 0.211,0.732 0.454,1.464 0.637,2.2 2.013,8.114 1.147,15.979 -5.373,21.741 C 20.388,155.282 2.46,148.8 0.21,134 c -0.684,-4.5 0.412,-9.208 1.653,-13.515 0.116,-0.109 0.421,0.245 0.5,0.333 1.151,1.244 2.215,2.772 3.393,3.959 0.6,0.61 0.8,0.925 1.666,0.435 l 6.859,-5.041 5.012,4.325 c 0.437,0.307 0.874,0.52 1.336,0.112 l 4.835,-4.406 6.657,3.7 z"
             transform="translate(0,-95.982)"
             fill="#ffffff"
             style="stroke-width:1.00256" />
          <path
             id="Path_2720"
             data-name="Path 2720"
             d="m 31.506,0.036 c 7.94,-0.753 14.074,10.22 16.561,16.457 0.365,0.915 0.693,1.844 1.015,2.774 l -0.053,0.177 -3.629,2.28 C 43.395,20.751 41.491,19.229 39.515,18.253 A 1.6,1.6 0 0 0 38.504,17.94 l -5.233,4.56 -5.387,-4.538 -0.411,-0.02 -7.2,5.183 c -0.12,0.066 -0.2,-0.1 -0.278,-0.17 A 53.2,53.2 0 0 1 16.268,18.661 C 16.162,18.525 15.94,18.266 15.935,18.108 A 49.91,49.91 0 0 1 20.121,9.37 C 22.543,5.467 26.6,0.5 31.506,0.036"
             transform="translate(-13.291,1.409)"
             fill="#ffffff"
             style="stroke-width:1.00256" />
        </g>
      </g>
    </g>
  </g>
</svg>
